<?xml version="1.0" encoding="utf-8"?>
<!-- Generator: Adobe Illustrator 26.3.0, SVG Export Plug-In . SVG Version: 6.00 Build 0)  -->
<svg version="1.1" id="Camada_1" xmlns="http://www.w3.org/2000/svg" xmlns:xlink="http://www.w3.org/1999/xlink" x="0px" y="0px"
	 viewBox="0 0 266 73" style="enable-background:new 0 0 266 73;" xml:space="preserve">
<style type="text/css">
	.st0{fill:#FFFFFF;}
	.st1{font-family:'Audiowide-Regular';}
	.st2{font-size:30.4006px;}
	.st3{letter-spacing:4;}
</style>
<polygon class="st0" points="37,28.1 27.1,24.1 29.9,29 37,32 "/>
<polygon class="st0" points="67.4,26.8 79.2,7.6 43.2,21.9 7.1,7.6 18.9,26.8 25.5,29.3 18,16.5 40.5,25.6 40.5,53.3 32.6,40.7 
	37,42.4 37,37.7 22,31.7 43.2,65.9 64.3,31.7 49.4,37.7 49.4,42.4 53.7,40.7 45.8,53.3 45.8,25.6 68.3,16.5 60.8,29.3 "/>
<polygon class="st0" points="56.4,29 59.3,24.1 49.4,28.1 49.4,32 "/>
<polygon class="st0" points="66.4,7.1 43.2,7.1 20,7.1 43.2,16.5 "/>
<text transform="matrix(1 0 0 1 84.2505 45.4492)" class="st0 st1 st2 st3">QUIRINO</text>
</svg>
